<?xml version="1.0" standalone="no"?><svg xmlns="http://www.w3.org/2000/svg" viewBox="0 0 1440 320"><path fill="#0099ff" fill-opacity="1" d="M0,256L20,224C40,192,80,128,120,96C160,64,200,64,240,85.3C280,107,320,149,360,160C400,171,440,149,480,170.7C520,192,560,256,600,277.3C640,299,680,277,720,229.3C760,181,800,107,840,80C880,53,920,75,960,96C1000,117,1040,139,1080,160C1120,181,1160,203,1200,186.7C1240,171,1280,117,1320,85.3C1360,53,1400,43,1420,37.3L1440,32L1440,320L1420,320C1400,320,1360,320,1320,320C1280,320,1240,320,1200,320C1160,320,1120,320,1080,320C1040,320,1000,320,960,320C920,320,880,320,840,320C800,320,760,320,720,320C680,320,640,320,600,320C560,320,520,320,480,320C440,320,400,320,360,320C320,320,280,320,240,320C200,320,160,320,120,320C80,320,40,320,20,320L0,320Z"></path></svg>