<?xml version="1.0" encoding="utf-8"?>
<!-- Generator: Adobe Illustrator 23.0.5, SVG Export Plug-In . SVG Version: 6.00 Build 0)  -->
<svg version="1.1" id="Capa_1" xmlns="http://www.w3.org/2000/svg" xmlns:xlink="http://www.w3.org/1999/xlink" x="0px" y="0px"
	 viewBox="0 0 1920 1080" style="enable-background:new 0 0 1920 1080;" xml:space="preserve">
<style type="text/css">
	.st0{fill:#FF3890;}
	.st1{fill:#FF4C90;}
	.st2{fill:none;stroke:#FBC02D;stroke-width:34;stroke-miterlimit:10;}
	.st3{fill:#FF4C59;}
	.st4{fill:#FBC02D;}
	.st5{fill:#0EB3F5;stroke:#000000;stroke-miterlimit:10;}
	.st6{fill:#10B1F4;}
	.st7{fill:none;stroke:#FFFFFF;stroke-width:24;stroke-miterlimit:10;}
	.st8{fill:#FF8A65;}
	.st9{fill:#FFFFFF;}
	.st10{fill:#0E98F5;}
	.st11{fill:#F1B610;}
	.st12{fill:none;stroke:#FFFFFF;stroke-width:25;stroke-miterlimit:10;}
	.st13{fill:#FF8A4C;}
	.st14{fill:#EFEFEF;}
	.st15{fill:#5793CE;}
	.st16{fill:#173D7A;}
	.st17{fill:#D4ECFF;}
	.st18{fill:#E9F6FF;}
	.st19{fill:#AEDEED;}
	.st20{opacity:0.4;fill:#FFFFFF;}
	.st21{fill:#B2D3EA;}
	.st22{fill:#396CAA;}
	.st23{fill:#FFC2B0;}
	.st24{fill:#D3008D;}
	.st25{fill:#FF2C9C;}
</style>
<g>
	<path class="st0" d="M-22,864.3"/>
	<g>
		<circle class="st1" cx="335.2" cy="329.3" r="61.1"/>
		<circle class="st2" cx="371.8" cy="362.1" r="61.1"/>
		<path class="st3" d="M334.8,329.3l-60.9-3.8c2-32,28.9-57.2,60.9-57.2c33.5,0,61.1,27.6,61.1,61.1H334.8z"/>
		<path class="st4" d="M98.2,258.7c34.6-16.9,85.2-3.1,113,22.9c32.9,30.8,38.3,83,29.8,119.8c-9.9,42.7-34.6,46.8-36.6,81.7
			c-3,50.2,45.5,89.9,55,97.7c44.3,36.3,123.4,61.3,180.9,25.2c65.9-41.4,69.6-141.9,52.7-202.3c-20.1-71.5-69.8-89.2-61.8-133.6
			c8.3-46.1,71.6-79.4,122.9-90.1c143.1-29.8,233.4,107.7,330.5,65.6c45.1-19.6,51.2-60.3,79.4-100
			C1070-3.6,1440.3-66.6,1688.9,120.5c266.2,200.5,274.9,599.3,116,813.6c-116.1,156.6-302.7,189.2-478.6,219.8
			c-418.8,73-582.7-235.6-956.4-135.9c-126.9,33.9-221.8,96.6-285.5,47.3c-50.3-38.9-31.4-109-27.5-335.1
			C62.4,419.8,31.3,291.3,98.2,258.7z"/>
		<path class="st5" d="M985.9,1032.6c-3.1-22.6,58.1-30.5,129-120.6c24.5-31.2,59.8-77.2,70.2-145.8c3.2-21,10.6-69.9-10.7-122.9
			c-41.6-103.3-160.5-142.6-181.7-149.6c-46.5-15.4-69.6-11.2-115.3-37.4c-26.6-15.3-78.7-45.2-77.1-77.9
			c2.5-51,134.9-92.3,236.6-98.5c53.5-3.2,115.6,2.9,217.5,37.4c188.6,63.9,299.8,101.6,372.5,212.2c79,120.3,103.2,312.4,8.4,448.8
			C1456.5,1235.8,994.2,1092.7,985.9,1032.6z"/>
		<polygon class="st6" points="588.8,595.9 616.8,496 644.8,396.1 717.4,470.3 789.9,544.5 689.4,570.2 		"/>
		<polygon class="st7" points="634.1,606.8 662.1,506.9 690.1,407 762.6,481.2 835.2,555.4 734.6,581.1 		"/>
		<rect x="664.9" y="741.5" class="st7" width="135.1" height="95.4"/>
		<rect x="703.1" y="651.4" class="st8" width="299.2" height="156.5"/>
		<g>
			<circle class="st9" cx="930.3" cy="409.4" r="7.3"/>
			<circle class="st9" cx="930.3" cy="476.7" r="7.3"/>
			<circle class="st9" cx="930.3" cy="452.4" r="7.3"/>
			<circle class="st9" cx="930.3" cy="430.7" r="7.3"/>
			<circle class="st9" cx="930.3" cy="502.6" r="7.3"/>
			<circle class="st9" cx="930.3" cy="528.4" r="7.3"/>
			<circle class="st9" cx="930.3" cy="550.2" r="7.3"/>
			<circle class="st9" cx="930.3" cy="550.2" r="7.3"/>
			<circle class="st9" cx="954.1" cy="409.4" r="7.3"/>
			<circle class="st9" cx="954.1" cy="430.7" r="7.3"/>
			<circle class="st9" cx="954.1" cy="452.4" r="7.3"/>
			<circle class="st9" cx="954.1" cy="476.7" r="7.3"/>
			<circle class="st9" cx="954.1" cy="502.6" r="7.3"/>
			<circle class="st9" cx="952.6" cy="525.9" r="7.3"/>
			<circle class="st9" cx="952.6" cy="550.2" r="7.3"/>
			<circle class="st9" cx="974.3" cy="409.4" r="7.3"/>
			<circle class="st9" cx="974.3" cy="430.7" r="7.3"/>
			<circle class="st9" cx="974.3" cy="454" r="7.3"/>
			<circle class="st9" cx="974.3" cy="476.7" r="7.3"/>
			<circle class="st9" cx="974.3" cy="502.6" r="7.3"/>
			<circle class="st9" cx="1020.4" cy="502.6" r="7.3"/>
			<circle class="st9" cx="974.3" cy="525.9" r="7.3"/>
			<circle class="st9" cx="1020.4" cy="480.3" r="7.3"/>
			<circle class="st9" cx="1020.4" cy="454.5" r="7.3"/>
			<circle class="st9" cx="1020.4" cy="430.7" r="7.3"/>
			<circle class="st9" cx="1020.4" cy="409.4" r="7.3"/>
			<circle class="st9" cx="999.1" cy="549.2" r="7.3"/>
			<circle class="st9" cx="999.1" cy="525.9" r="7.3"/>
			<circle class="st9" cx="999.1" cy="502.6" r="7.3"/>
			<circle class="st9" cx="999.1" cy="476.7" r="7.3"/>
			<circle class="st9" cx="999.1" cy="454.5" r="7.3"/>
			<circle class="st9" cx="999.1" cy="430.7" r="7.3"/>
			<circle class="st9" cx="999.1" cy="409.4" r="7.3"/>
			<circle class="st9" cx="974.3" cy="549.2" r="7.3"/>
			<circle class="st9" cx="1022.4" cy="525.9" r="7.3"/>
			<circle class="st9" cx="1022.4" cy="547.1" r="7.3"/>
			<circle class="st9" cx="1046.2" cy="430.7" r="7.3"/>
			<circle class="st9" cx="1046.2" cy="480.3" r="7.3"/>
			<circle class="st9" cx="1046.2" cy="525.9" r="7.3"/>
			<circle class="st9" cx="1073.6" cy="502.6" r="7.3"/>
			<circle class="st9" cx="1073.6" cy="452.4" r="7.3"/>
		</g>
		<polyline class="st10" points="664.9,1080.3 1977,395.7 1735.8,1094.1 664.9,1094.1 		"/>
		<path class="st0" d="M209.3,719.3c13.1-8.2,27.3-17,40.5-25.2"/>
		<path class="st11" d="M-22,934.6c0-12.3,11.2-16.3,99.9-88.3c44.4-36.1,79.7-66.1,101.6-84.9c31-23.8,54.9-42.7,70.2-55
			c25.5-20.3,36.7-29.8,48.1-26c13.7,4.6,22.5,26.4,19.8,43.5c-2.2,14.5-11.3,16.4-13,31.3c-1.5,13.5,3.9,28.6,13,36.6
			c19.9,17.7,58.1,2.5,70.2-2.3c61.8-24.6,64.7-68.5,135.9-129.8c27.9-24,79.7-68.5,110.7-52.7c20.6,10.6,27.3,45.5,23.7,71
			c-6.2,43.9-41,46.9-65.6,104.6c-9.6,22.4-12.5,42.1-18.3,81.7c-5.6,38.1-6.4,70.7-6.9,92.4c-1.1,52.1,3.1,55.7,0,64.1
			C535.5,1107.5-21.9,1021.4-22,934.6z"/>
		<g>
			<circle class="st9" cx="407.8" cy="761.6" r="7.7"/>
			<circle class="st9" cx="478.8" cy="761.5" r="7.7"/>
			<circle class="st9" cx="453.2" cy="761.6" r="7.7"/>
			<circle class="st9" cx="430.2" cy="761.6" r="7.7"/>
			<circle class="st9" cx="506" cy="761.5" r="7.7"/>
			<circle class="st9" cx="533.2" cy="761.5" r="7.7"/>
			<circle class="st9" cx="556.2" cy="761.5" r="7.7"/>
			<circle class="st9" cx="556.2" cy="761.5" r="7.7"/>
			<circle class="st9" cx="407.8" cy="736.5" r="7.7"/>
			<circle class="st9" cx="430.2" cy="736.5" r="7.7"/>
			<circle class="st9" cx="453.1" cy="736.5" r="7.7"/>
			<circle class="st9" cx="478.8" cy="736.5" r="7.7"/>
			<circle class="st9" cx="506" cy="736.4" r="7.7"/>
			<circle class="st9" cx="530.5" cy="738" r="7.7"/>
			<circle class="st9" cx="556.2" cy="738" r="7.7"/>
			<circle class="st9" cx="407.8" cy="715.2" r="7.7"/>
			<circle class="st9" cx="430.2" cy="715.1" r="7.7"/>
			<circle class="st9" cx="454.7" cy="715.1" r="7.7"/>
			<circle class="st9" cx="478.7" cy="715.1" r="7.7"/>
			<circle class="st9" cx="506" cy="715.1" r="7.7"/>
			<circle class="st9" cx="505.9" cy="666.5" r="7.7"/>
			<circle class="st9" cx="530.5" cy="715.1" r="7.7"/>
			<circle class="st9" cx="482.4" cy="666.5" r="7.7"/>
			<circle class="st9" cx="455.2" cy="666.5" r="7.7"/>
			<circle class="st9" cx="430.1" cy="666.6" r="7.7"/>
			<circle class="st9" cx="407.7" cy="666.6" r="7.7"/>
			<circle class="st9" cx="555.1" cy="688.9" r="7.7"/>
			<circle class="st9" cx="530.5" cy="688.9" r="7.7"/>
			<circle class="st9" cx="505.9" cy="688.9" r="7.7"/>
			<circle class="st9" cx="478.7" cy="688.9" r="7.7"/>
			<circle class="st9" cx="455.2" cy="689" r="7.7"/>
			<circle class="st9" cx="430.2" cy="689" r="7.7"/>
			<circle class="st9" cx="407.7" cy="689" r="7.7"/>
			<circle class="st9" cx="555.1" cy="715" r="7.7"/>
			<circle class="st9" cx="530.5" cy="664.3" r="7.7"/>
			<circle class="st9" cx="552.9" cy="664.3" r="7.7"/>
			<circle class="st9" cx="430.1" cy="639.4" r="7.7"/>
			<circle class="st9" cx="482.4" cy="639.3" r="7.7"/>
			<circle class="st9" cx="530.5" cy="639.3" r="7.7"/>
			<circle class="st9" cx="505.9" cy="610.5" r="7.7"/>
			<circle class="st9" cx="453" cy="610.5" r="7.7"/>
		</g>
		<path class="st5" d="M83.7,851c11.3-11.6,37.2-13.7,55.7-8.4c14.6,4.2,19.6,11.5,41.2,29c34.6,28,51.9,42.1,69.5,42.7
			c34.8,1.4,48.1-40.6,69.5-34.3c28.9,8.5,26.1,91.8,26,95.4c-0.9,22.6-1.8,44.6-15.3,66.4c-22.5,36.5-69.4,55.1-105.3,52.7
			C118,1087.3,46.1,889.5,83.7,851z"/>
		<circle class="st1" cx="1221.4" cy="240" r="61.1"/>
		<path class="st0" d="M1221.7,230.9L1174,269c-8.6-10.8-13.3-24.2-13.3-38.1c0-33.5,27.6-61.1,61.1-61.1s61.1,27.6,61.1,61.1
			H1221.7z"/>
		<circle class="st12" cx="1145.4" cy="219.8" r="61.1"/>
		<rect x="703.1" y="715.5" class="st13" width="299.2" height="92.4"/>
	</g>
	<g>
		<path class="st14" d="M1424.3,937.1l-159.2-91.9c-5.5-3.2-4.8-8.8,1.6-12.5l0,0c6.4-3.7,16.1-4.1,21.6-0.9l159.2,91.9
			c5.5,3.2,4.8,8.8-1.6,12.5h0C1439.5,939.9,1429.9,940.3,1424.3,937.1z"/>
		<path class="st15" d="M1453.2,450.1L1281.6,351c-5.6-3.3-10.8-3.3-14.6-0.9l0,0l-21.5,12.5l14.4,2.7c0,0.7-0.1,1.5-0.1,2.3v404.7
			c0,16.1,9.8,34.7,21.8,41.7l169.2,97.7c-1.5,4.8-4.8,15-4.8,15l21.1-12.2l0,0c4.9-2.5,8-8.8,8-17.9V491.7
			C1475,475.7,1465.2,457,1453.2,450.1z"/>
		<path class="st16" d="M1259.8,772.2c0,16.1,9.8,34.7,21.8,41.7l169.2,97.7c-1.5,4.8-4.8,15-4.8,15l21.1-12.2l0,0
			c4.9-2.5,8-8.8,8-17.9V491.7c0-8.4-2.7-17.5-6.9-25.2l-208.3,120.3V772.2z"/>
		<path class="st17" d="M1431.5,925.5l-171.6-99.1c-12.1-7-21.8-25.6-21.8-41.7V380c0-16.1,9.8-23.5,21.8-16.5l171.6,99.1
			c12.1,7,21.8,25.6,21.8,41.7V909C1453.3,925.1,1443.6,932.4,1431.5,925.5z"/>
		<path class="st9" d="M1433.7,461.2l-171.6-99.1c-6.2-3.6-11.8-3.3-15.8-0.1c3.7-1.8,8.4-1.4,13.5,1.5l171.6,99.1
			c12.1,7,21.8,25.6,21.8,41.7V909c0,7.8-2.3,13.5-6,16.6c5-2.4,8.3-8.8,8.3-18V502.8C1455.6,486.8,1445.8,468.1,1433.7,461.2z"/>
		<path class="st9" d="M1428.3,912.1l-164.9-95.2c-9-5.2-16.2-19-16.2-31v-399c0-11.9,7.3-17.4,16.2-12.3l164.9,95.2
			c9,5.2,16.2,19,16.2,31v399C1444.5,911.8,1437.3,917.3,1428.3,912.1z"/>
		<path class="st15" d="M1429.7,911.5l-164.9-95.2c-9-5.2-16.2-19-16.2-31v-399c0-6.7,2.3-11.4,5.9-13.3c-4.4,1.4-7.2,6.3-7.2,13.8
			v399c0,11.9,7.3,25.8,16.2,31l164.9,95.2c3.9,2.3,7.5,2.5,10.3,1C1436.1,913.9,1433,913.4,1429.7,911.5z"/>
		<path class="st14" d="M1360.9,789.6l-80.9-46.7V546.1l38.1,22c26.5,15.3,42.8,43.5,42.8,74.1V789.6z"/>
		<g>
			<path class="st17" d="M1251,527.1L1251,527.1c-8.2-4.8-19.5-4.2-32,3c-24.8,14.3-45,49.3-45,77.9v20.7v0l0,0l0,0l0.9,0.5
				l81.1,47.7l1.2-24.7l1-9.6l4.3-14.9l0.5-2.3l9.2-18.6l7.3-9.1l5.9-7l14.3-11.3l1.3-0.9l7.1-3l9.5-2.5h7.4l8.3,1.4L1251,527.1z"/>
			<path class="st17" d="M1261.3,718.3l2.6-1.5v-94.2c-1.4,1.9-2,4.2-2.6,6.7V718.3z"/>
			<polygon class="st17" points="1343.3,765.5 1261.3,718.3 1262.2,629.1 1265.3,620.1 1274.8,603.8 1286,590.5 1296.1,582.4 
				1307.1,575.8 1326.9,573.5 1337.4,579.4 1343.3,588.4 1345.1,602.2 1344.5,751.3 			"/>
			<path class="st15" d="M1251,527.1c-6.8-4.1-15.9-4.3-26,0l83.5,48.2l9-2.3h7.4l8.3,1.4L1251,527.1L1251,527.1z"/>
			<g>
				<path class="st18" d="M1227,526.3c-2.6,1-5.3,2.2-8,3.8c-1.8,1.1-3.6,2.2-5.4,3.5l83.2,48l2.8-2.2l1.3-0.9l7.1-3l2.8-0.7
					L1227,526.3z"/>
				<path class="st9" d="M1286,590.1l11.3-8.9l-83.2-48c-3.8,2.6-7.4,5.7-10.8,9.2L1286,590.1z"/>
				<path class="st15" d="M1345.9,764l-2.6,1.5V604.8c0-27-19-38-42.4-24.5c-23.4,13.5-42.4,46.4-42.4,73.4v21.7l-2.6,1.5v-21.7
					c0-28.7,20.2-63.6,45-77.9c24.8-14.3,45-2.7,45,26V764z"/>
			</g>
		</g>
		<polygon class="st19" points="1198.8,592.6 1194.2,611.5 1196.5,641.9 1190.7,638.5 1183.2,621.9 1189.7,601 		"/>
		<g>
			<path class="st20" d="M1332.9,713.3c-0.5,0-1-0.2-1.5-0.4l-59.6-34.4c-1.8-1-3.1-3.6-3.1-5.9v-46.9c0-1.4,0.5-2.5,1.4-3
				c0.8-0.5,1.7-0.4,2.7,0.1l59.6,34.4c1.8,1,3.1,3.6,3.1,5.9V710c0,1.4-0.5,2.5-1.4,3C1333.7,713.2,1333.3,713.3,1332.9,713.3z
				 M1271.2,624.3c-0.1,0-0.1,0-0.2,0c-0.2,0.1-0.4,0.5-0.4,1.3v46.9c0,1.6,1,3.6,2.2,4.2l59.6,34.4c0.2,0.1,0.5,0.3,0.8,0.1
				c0.2-0.1,0.4-0.5,0.4-1.3v-46.9c0-1.6-1-3.6-2.2-4.2l-59.6-34.4C1271.6,624.4,1271.4,624.3,1271.2,624.3z"/>
			<g>
				<path class="st21" d="M1290.2,680.3l-0.4-0.2c-1.6-0.9-2.8-3.3-2.8-5.4v-22.3c0-2.1,1.3-3,2.8-2.1l0.4,0.2
					c1.6,0.9,2.8,3.3,2.8,5.4v22.3C1293.1,680.3,1291.8,681.2,1290.2,680.3z"/>
				<path class="st21" d="M1302.2,687.3l-0.4-0.2c-1.6-0.9-2.8-3.3-2.8-5.4v-13.1c0-2.1,1.3-3,2.8-2.1l0.4,0.2
					c1.6,0.9,2.8,3.3,2.8,5.4v13.1C1305,687.2,1303.8,688.2,1302.2,687.3z"/>
				<path class="st22" d="M1314.2,694.2l-0.4-0.2c-1.6-0.9-2.8-3.3-2.8-5.4v-31.1c0-2.1,1.3-3,2.8-2.1l0.4,0.2
					c1.6,0.9,2.8,3.3,2.8,5.4v31.1C1317,694.1,1315.8,695.1,1314.2,694.2z"/>
			</g>
		</g>
		<g>
			<path class="st14" d="M1182,925.6c20,11.6,52.5,11.6,72.5,0c20-11.6,20-30.3,0-41.9c-20-11.6-52.5-11.6-72.5,0
				C1162,895.3,1162,914,1182,925.6z"/>
			<g>
				<path class="st16" d="M1186.8,889c-3.6,1.5-5.8,5.5-5.5,9.8c0.1,2,0.4,3.9,0.8,4.8c1.1,2.4,4.9,5.7,10.8,3.3
					c5.9-2.3,19.1-14.8,19.6-22.9C1213.5,868.9,1196.3,885,1186.8,889z"/>
				<path class="st16" d="M1221.8,913.9c0,0-1.4,8.7-0.7,10.3s4.8,5,10.9,4.3s23.7-6.8,27.6-18.4c6.1-18-33.9,1.3-33.9,1.3
					L1221.8,913.9z"/>
				<path class="st17" d="M1239,774.9l1.4,135.7c-0.1,4.7-3.2,8.7-7.4,9.4c-0.5,0.1-1.1,0.2-1.7,0.2c-4.2,0.4-6.7-1.4-8.1-3.3
					c-1.1-1.5-1.7-3.5-1.8-5.5l-1.7-57.9l-8.7-51.8l-12,91.7c-0.2,2.5-1.4,4.8-3.3,6c-1.3,0.9-3.1,1.6-5.5,1.5
					c-3.4-0.1-5.8-1.9-7.3-3.6c-1.2-1.3-1.8-3.1-1.7-4.9l4.7-55.2l1.8-70.4L1239,774.9z"/>
				<path class="st23" d="M1221.4,653.4l-2.1,12.4c0,0-0.1,4.2,4.6,5.4c4.7,1.2,6.2-1.9,6.2-1.9l2.1-13.9L1221.4,653.4z"/>
				<path class="st23" d="M1247.3,646.6c-3.3,10.6-13.7,16.7-23.1,13.7c-9.4-3-14.4-14-11-24.6c3.3-10.6,13.7-16.7,23.1-13.7
					C1245.8,625,1250.7,636,1247.3,646.6z"/>
				<path class="st15" d="M1221.9,666c-0.3-0.1-20-12.8-27.3,0.5c-11.9,21.6-3.2,46.4-7.4,100.2c-0.7,9,12.1,14.5,18.2,17.9
					c5.4,3.1,11.4,5,17.6,5c6.1,0,17.9-5.4,17.5-13.4c-2-37,1.3-68.1,4.3-98.3C1244.9,677.8,1241.1,673.8,1221.9,666z"/>
				<path class="st22" d="M1211,801.7l-12,91.7c-0.2,2.5-1.4,4.8-3.3,6c-0.3,0.2-0.7,0.4-1,0.6c2.5-1.9,9.7-78.8,11.1-87.4
					C1207.2,804.1,1211,801.7,1211,801.7z"/>
			</g>
			<polygon class="st23" points="1285.7,677.2 1302.2,644.5 1297,641.3 1279.9,666.1 			"/>
			<polygon class="st23" points="1177.1,642.5 1185.1,606.1 1191.5,606.1 1189.1,636.3 			"/>
			<path class="st15" d="M1244.9,677.8c0,0,18.4,7.3,34.2-12.7c1.4-1.8,4.3-1.6,5.1,0.3c1.4,3.3,3.2,8.2,1,12.9
				c-9.6,20.5-42.2,19.8-50.1,31.3C1227.3,721.1,1244.9,677.8,1244.9,677.8z"/>
			<path class="st15" d="M1209.5,661.5c0,0-15.2,1.2-17.4-12c-1.1-6.8-1.5-10.8-1.5-13.2c0-1.6-1.4-2.8-3-2.6c-3.6,0.5-9.3,1.5-10,4
				c-1.1,3.6-3.3,21.5,11.7,48.9C1199.1,704.6,1209.5,661.5,1209.5,661.5z"/>
			<path class="st23" d="M1185.1,606.1l0.1-4.2c0.1-1.5,0.5-2.9,1.2-4.1l4.2-6.9l1.1-1.4c1-1.3,2.8-1.6,4.2-0.7l1,0.6
				c1.2,0.8,1.9,2.2,1.9,3.6l-2.2,5.9l2.8-0.5c0.5-0.1,1.1,0.3,1.1,0.8l0,0c0.1,0.5-0.2,0.9-0.6,1.1l-4.5,1.8l-4.1,5.8L1185.1,606.1
				z"/>
			<path class="st23" d="M1302.3,644.7l1.9-3.7c0.7-1.3,1-2.8,1-4.2l-0.2-8.1l-0.3-1.7c-0.3-1.6-1.7-2.8-3.3-2.7l-1.1,0.1
				c-1.5,0.1-2.8,0.9-3.4,2.2l-1,6.2l-2.1-1.8c-0.4-0.4-1-0.3-1.4,0.1l0,0c-0.3,0.4-0.3,0.9,0,1.2l3,3.8l0.8,7.9L1302.3,644.7z"/>
			<path class="st22" d="M1232.9,705.5c-1.6,7.3,8,62.4-2.7,82.5c5.4-2.2,10.7-6.4,10.4-11.9c-1.4-26.4-0.1-49.9,1.8-72.1
				c9.2-4.6,23.5-7.4,33.6-14.8C1265.2,693.2,1234.3,699,1232.9,705.5z"/>
			<path class="st9" d="M1214.9,662.5l2.7-2.8c0,0,4.5,4.6,8.1,5.4c0,0,4.3,1.2,6.5,1.3l1.8,4.8
				C1233.9,671.3,1219.6,670.2,1214.9,662.5z"/>
			<path class="st16" d="M1234.5,647c0.8,0,1.5-0.4,1.9-1c0.7-1.1,0.3-6.1,2.6-6.9c3.6-1.3,12.1,3.2,13-9.8
				c0.5-6.7-2.8-8.5-2.8-12.2c0,0,0.3,1.9-17.1,0.7c-17.3-1.2-23,14.3-23.4,21.6c-0.4,7.3,3.1,19.4,15,21.1c2,0.3,10.2-6.4,10-7.2
				c-0.2-0.9-3.3-0.8-2.9-3.4C1231.3,647.8,1232.5,647,1234.5,647z"/>
		</g>
		<g>
			<g>
				<path class="st14" d="M1340.9,835.6l-52.4-30.3c-2.3-1.3-4.2-5-4.2-8.1v-39c0-3.1,1.9-4.5,4.2-3.2l52.4,30.3
					c2.3,1.3,4.2,5,4.2,8.1v39C1345.1,835.6,1343.2,837,1340.9,835.6z"/>
				<path class="st16" d="M1335.7,773.8l-52.4-30.3c-1-0.6-2-0.6-2.7-0.2c0,0,0,0,0,0l-5.1,2.9c0,0,2.3,0.8,3.6,1.3v38.2
					c0,3.1,1.9,6.7,4.2,8.1l50.1,28.9v4.5l5.1-3l0,0c0.9-0.5,1.4-1.7,1.4-3.4v-39C1339.9,778.8,1338,775.1,1335.7,773.8z"/>
				<path class="st15" d="M1330.5,827l-52.4-30.3c-2.3-1.3-4.2-5-4.2-8.1v-39c0-3.1,1.9-4.5,4.2-3.2l52.4,30.3
					c2.3,1.3,4.2,5,4.2,8.1v39C1334.8,826.9,1332.9,828.4,1330.5,827z"/>
				<path class="st9" d="M1330.5,776.8l-52.4-30.3c-1.3-0.8-2.5-0.6-3.3,0.2c0.6,0,1.2,0.1,1.9,0.5l52.4,30.3c2.3,1.3,4.2,5,4.2,8.1
					v39c0,1.3-0.4,2.3-1,3c1.4-0.1,2.4-1.5,2.4-3.7v-39C1334.8,781.7,1332.9,778.1,1330.5,776.8z"/>
			</g>
			<g>
				<path class="st9" d="M1295.7,783.3c0,2.3-1.6,3.2-3.5,2c-2-1.1-3.5-3.9-3.5-6.1s1.6-3.2,3.5-2
					C1294.2,778.3,1295.7,781.1,1295.7,783.3z"/>
				<path class="st9" d="M1306.5,789.5c0,2.3-1.6,3.2-3.5,2c-2-1.1-3.5-3.9-3.5-6.1c0-2.3,1.6-3.2,3.5-2
					C1304.9,784.5,1306.5,787.2,1306.5,789.5z"/>
				<path class="st9" d="M1317.2,795.7c0,2.3-1.6,3.2-3.5,2c-2-1.1-3.5-3.9-3.5-6.1c0-2.3,1.6-3.2,3.5-2
					C1315.6,790.7,1317.2,793.4,1317.2,795.7z"/>
			</g>
		</g>
		<g>
			<g>
				<g>
					<path class="st14" d="M1427.8,885.8l-52.4-30.3c-2.3-1.3-4.2-5-4.2-8.1v-87.7c0-3.1,1.9-4.5,4.2-3.2l52.4,30.3
						c2.3,1.3,4.2,5,4.2,8.1v87.7C1432.1,885.8,1430.2,887.2,1427.8,885.8z"/>
					<path class="st24" d="M1422.7,775.3l-52.4-30.3c-1-0.6-2-0.6-2.7-0.2c0,0,0,0,0,0l-5.1,2.9c0,0,2.3,0.8,3.6,1.3v86.9
						c0,3.1,1.9,6.7,4.2,8.1l50.1,28.9v4.5l5.1-3l0,0c0.9-0.5,1.4-1.7,1.4-3.4v-87.7C1426.9,780.2,1425,776.6,1422.7,775.3z"/>
					<path class="st25" d="M1417.5,877.2l-52.4-30.3c-2.3-1.3-4.2-5-4.2-8.1v-87.7c0-3.1,1.9-4.5,4.2-3.2l52.4,30.3
						c2.3,1.3,4.2,5,4.2,8.1V874C1421.7,877.1,1419.8,878.6,1417.5,877.2z"/>
					<path class="st9" d="M1417.5,778.2l-52.4-30.3c-1.3-0.8-2.5-0.6-3.3,0.2c0.6,0,1.2,0.1,1.9,0.5l52.4,30.3
						c2.3,1.3,4.2,5,4.2,8.1v87.7c0,1.3-0.4,2.3-1,3c1.4-0.1,2.4-1.5,2.4-3.7v-87.7C1421.7,783.2,1419.8,779.6,1417.5,778.2z"/>
				</g>
			</g>
			<g>
				<path class="st9" d="M1398.9,790.1c0,4.9-3.4,6.9-7.6,4.4c-4.2-2.4-7.6-8.4-7.6-13.2c0-4.9,3.4-6.9,7.6-4.4
					C1395.5,779.3,1398.9,785.3,1398.9,790.1z"/>
				<path class="st9" d="M1402.1,803.9c0-0.1,0-0.2,0-0.2c-0.3-2.1-2.3-3.9-3.6-3.4c-2,0.7-4.5,0.4-7.3-1.2
					c-2.7-1.6-5.3-4.2-7.3-7.1c-1.3-1.9-3.2-2.4-3.6-0.7c0,0.1,0,0.1,0,0.2l-3.6,23l28.9,16.7L1402.1,803.9z"/>
			</g>
			<g>
				<polygon class="st9" points="1407.8,848.7 1372.7,828.4 1372.7,825.9 1407.8,846.1 				"/>
				<polygon class="st9" points="1397.2,853.6 1372.7,839.5 1372.7,836.9 1397.2,851.1 				"/>
				<polygon class="st9" points="1393.9,846.2 1372.7,833.9 1372.7,831.4 1393.9,843.6 				"/>
				<polygon class="st9" points="1407.8,854.2 1397.2,848.1 1397.2,845.5 1407.8,851.7 				"/>
			</g>
		</g>
		<g>
			<g>
				<g>
					<path class="st14" d="M1427.8,761.8l-52.4-30.3c-2.3-1.3-4.2-5-4.2-8.1v-87.7c0-3.1,1.9-4.5,4.2-3.2l52.4,30.3
						c2.3,1.3,4.2,5,4.2,8.1v87.7C1432.1,761.7,1430.2,763.1,1427.8,761.8z"/>
					<path class="st15" d="M1422.7,651.2l-52.4-30.3c-1-0.6-2-0.6-2.7-0.2c0,0,0,0,0,0l-5.1,2.9c0,0,2.3,0.8,3.6,1.3v86.9
						c0,3.1,1.9,6.7,4.2,8.1l50.1,28.9v4.5l5.1-3l0,0c0.9-0.5,1.4-1.7,1.4-3.4v-87.7C1426.9,656.1,1425,652.5,1422.7,651.2z"/>
					<path class="st17" d="M1417.5,753.1l-52.4-30.3c-2.3-1.3-4.2-5-4.2-8.1v-87.7c0-3.1,1.9-4.5,4.2-3.2l52.4,30.3
						c2.3,1.3,4.2,5,4.2,8.1v87.7C1421.7,753.1,1419.8,754.5,1417.5,753.1z"/>
					<path class="st9" d="M1417.5,654.2l-52.4-30.3c-1.3-0.8-2.5-0.6-3.3,0.2c0.6,0,1.2,0.1,1.9,0.5l52.4,30.3
						c2.3,1.3,4.2,5,4.2,8.1v87.7c0,1.3-0.4,2.3-1,3c1.4-0.1,2.4-1.5,2.4-3.7v-87.7C1421.7,659.1,1419.8,655.5,1417.5,654.2z"/>
				</g>
			</g>
			<g>
				<polygon class="st15" points="1407.9,674 1372.7,653.7 1372.7,651.2 1407.9,671.4 				"/>
				<polygon class="st15" points="1397.3,678.9 1372.7,664.8 1372.7,662.2 1397.3,676.4 				"/>
				<polygon class="st15" points="1394,671.5 1372.7,659.2 1372.7,656.7 1394,668.9 				"/>
				<polygon class="st15" points="1407.9,679.5 1397.3,673.4 1397.3,670.8 1407.9,677 				"/>
			</g>
			<g>
				<polygon class="st15" points="1407.9,695.3 1372.7,675.1 1372.7,672.5 1407.9,692.8 				"/>
				<polygon class="st15" points="1397.3,700.3 1372.7,686.1 1372.7,683.6 1397.3,697.7 				"/>
				<polygon class="st15" points="1394,692.8 1372.7,680.6 1372.7,678.1 1394,690.3 				"/>
				<polygon class="st15" points="1407.9,700.9 1397.3,694.7 1397.3,692.2 1407.9,698.3 				"/>
			</g>
			<g>
				<polygon class="st15" points="1407.9,716.7 1372.7,696.4 1372.7,693.9 1407.9,714.2 				"/>
				<polygon class="st15" points="1397.3,721.6 1372.7,707.5 1372.7,704.9 1397.3,719.1 				"/>
				<polygon class="st15" points="1394,714.2 1372.7,701.9 1372.7,699.4 1394,711.7 				"/>
				<polygon class="st15" points="1407.9,722.2 1397.3,716.1 1397.3,713.6 1407.9,719.7 				"/>
			</g>
		</g>
		<g>
			<polygon class="st9" points="1297.2,710.9 1272.1,696.4 1272.1,694.1 1297.2,708.5 			"/>
			<polygon class="st9" points="1312.7,719.8 1302,713.7 1302,711.3 1312.7,717.5 			"/>
			<polygon class="st9" points="1298.1,716.5 1287.4,710.3 1287.4,708 1298.1,714.1 			"/>
			<polygon class="st9" points="1321.2,729.8 1302,718.8 1302,716.4 1321.2,727.5 			"/>
			<polygon class="st9" points="1334.4,742.5 1306,726.1 1306,723.8 1334.4,740.2 			"/>
			<polygon class="st9" points="1328,728.7 1317.3,722.5 1317.3,720.2 1328,726.3 			"/>
			<polygon class="st9" points="1282.8,707.7 1272.1,701.5 1272.1,699.2 1282.8,705.3 			"/>
			<polygon class="st9" points="1301.4,723.5 1272.1,706.6 1272.1,704.2 1301.4,721.1 			"/>
			<polygon class="st9" points="1290.1,722.1 1272.4,711.9 1272.4,709.5 1290.1,719.7 			"/>
		</g>
		<g>
			<path class="st14" d="M1421.1,600L1284,520.9c-8.9-5.1-16.1-18.9-16.1-30.7l0,0c0-11.8,7.2-17.3,16.1-12.2l137.1,79.2
				c8.9,5.1,16.1,18.9,16.1,30.7v0C1437.2,599.7,1430,605.1,1421.1,600z"/>
			<path class="st24" d="M1433.8,580.1c0-11.8-7.2-25.6-16.1-30.7l-137.1-79.2c-4.1-2.4-7.9-2.5-10.7-0.7l0,0l-6.8,3.9l3.1,0.3
				c-1.1,2.3-1.7,5.1-1.7,8.6v0c0,11.8,7.2,25.6,16.1,30.7l137.1,79.2c1.7,1,3.4,1.6,5,1.8l-0.8,2.7l6.7-3.9l-0.1,0
				C1431.7,590.9,1433.8,586.4,1433.8,580.1z"/>
			<path class="st25" d="M1411.2,596.1l-137.1-79.2c-8.9-5.1-16.1-18.9-16.1-30.7l0,0c0-11.8,7.2-17.3,16.1-12.2l137.1,79.2
				c8.9,5.1,16.1,18.9,16.1,30.7v0C1427.2,595.7,1420,601.2,1411.2,596.1z"/>
			<path class="st9" d="M1412.5,552.3l-137.1-79.2c-4.5-2.6-8.6-2.5-11.5-0.2c2.8-1.4,6.3-1.2,10.1,1l137.1,79.2
				c8.9,5.1,16.1,18.9,16.1,30.7c0,5.8-1.7,10.1-4.6,12.3c3.6-1.8,5.9-6.5,5.9-13.2C1428.6,571.2,1421.4,557.4,1412.5,552.3z"/>
		</g>
		<g>
			<path class="st14" d="M1369.6,505.1l-84.9-49c-8.9-5.1-16.1-18.9-16.1-30.7l0,0c0-11.8,7.2-17.3,16.1-12.2l84.9,49
				c8.9,5.1,16.1,18.9,16.1,30.7l0,0C1385.7,504.7,1378.5,510.2,1369.6,505.1z"/>
			<path class="st15" d="M1381.6,485.1c0-11.8-7.2-25.6-16.1-30.7l-84.9-49c-4.1-2.4-7.9-2.5-10.7-0.7l0,0l-6.8,3.9l3.1,0.3
				c-1.1,2.3-1.7,5.1-1.7,8.6v0c0,11.8,7.2,25.6,16.1,30.7l84.9,49c1.7,1,3.4,1.6,5,1.8l-0.8,2.7l6.7-3.9l-0.1,0
				C1379.6,495.9,1381.6,491.4,1381.6,485.1z"/>
			<path class="st17" d="M1359,501.1l-84.9-49c-8.9-5.1-16.1-18.9-16.1-30.7l0,0c0-11.8,7.2-17.3,16.1-12.2l84.9,49
				c8.9,5.1,16.1,18.9,16.1,30.7l0,0C1375.1,500.7,1367.9,506.2,1359,501.1z"/>
			<path class="st9" d="M1360.4,457.3l-84.9-49c-4.5-2.6-8.6-2.5-11.5-0.2c2.8-1.4,6.3-1.2,10.1,1l84.9,49
				c8.9,5.1,16.1,18.9,16.1,30.7c0,5.8-1.7,10.1-4.6,12.3c3.6-1.8,5.9-6.5,5.9-13.2C1376.4,476.2,1369.2,462.4,1360.4,457.3z"/>
		</g>
		<g>
			<polygon class="st15" points="1320.6,456.1 1285.5,435.9 1285.5,433.3 1320.6,453.6 			"/>
			<polygon class="st15" points="1348.5,472.2 1324,458.1 1324,455.6 1348.5,469.7 			"/>
			<polygon class="st15" points="1306.7,453.6 1285.5,441.4 1285.5,438.9 1306.7,451.1 			"/>
			<polygon class="st15" points="1320.6,461.7 1310,455.6 1310,453 1320.6,459.1 			"/>
		</g>
		<g>
			<polygon class="st9" points="1403.2,569.5 1368.1,549.2 1368.1,546.7 1403.2,567 			"/>
			<polygon class="st9" points="1364.8,547.4 1340.3,533.2 1340.3,530.7 1364.8,544.8 			"/>
			<polygon class="st9" points="1389.3,567 1368.1,554.8 1368.1,552.2 1389.3,564.5 			"/>
			<polygon class="st9" points="1403.2,575.1 1392.6,568.9 1392.6,566.4 1403.2,572.5 			"/>
			<polygon class="st9" points="1364.8,552.8 1354.2,546.7 1354.2,544.2 1364.8,550.3 			"/>
		</g>
		<g>
			<polygon class="st15" points="1195.6,577.7 1190.2,574.6 1191,573 1196.5,576.1 			"/>
			<path class="st15" d="M1185.4,571.9l0.9-1.6l-2.1-1.2c-0.3,0.6-0.5,1.1-0.8,1.7L1185.4,571.9z"/>
			<polygon class="st15" points="1205.7,583.6 1200.3,580.5 1201.2,578.9 1206.6,582 			"/>
			<polygon class="st15" points="1215.9,589.5 1210.5,586.4 1211.4,584.7 1216.8,587.9 			"/>
			<polygon class="st15" points="1226.1,595.4 1220.7,592.2 1221.6,590.6 1227,593.7 			"/>
			<polygon class="st15" points="1236.2,601.2 1230.8,598.1 1231.7,596.5 1237.1,599.6 			"/>
			<polygon class="st15" points="1246.4,607.1 1241,604 1241.9,602.4 1247.3,605.5 			"/>
			<polygon class="st15" points="1256.6,613 1251.2,609.9 1252.1,608.2 1257.5,611.3 			"/>
			<polygon class="st15" points="1266.7,618.8 1261.3,615.7 1262.2,614.1 1267.6,617.2 			"/>
		</g>
		<g>
			<polygon class="st15" points="1293.2,591.6 1287.7,588.5 1288.8,586.9 1293.2,589.4 			"/>
			<polygon class="st15" points="1303.5,597.6 1298,594.4 1298,592.2 1303.5,595.4 			"/>
			<polygon class="st15" points="1313.9,603.6 1308.4,600.4 1308.4,598.2 1313.9,601.4 			"/>
			<polygon class="st15" points="1324.2,609.5 1318.7,606.4 1318.7,604.2 1324.2,607.4 			"/>
			<polygon class="st15" points="1334.6,615.5 1329.1,612.3 1329.1,610.2 1334.6,613.3 			"/>
			<polygon class="st15" points="1344.9,621.5 1339.4,618.3 1339.4,616.1 1344.9,619.3 			"/>
		</g>
		<polygon class="st9" points="1337,531.3 1317.3,519.9 1317.3,517.4 1337,528.8 		"/>
	</g>
</g>
</svg>
